<svg version="1.1" id="Layer_1" xmlns="http://www.w3.org/2000/svg" xmlns:xlink="http://www.w3.org/1999/xlink" x="0px" y="0px"
	 width="100%" viewBox="0 0 500 500" enable-background="new 0 0 500 500" xml:space="preserve">
<path fill="#000000" opacity="1.000000" stroke="none" 
	d="
M344.000000,501.000000 
	C229.333359,501.000000 115.166718,501.000000 1.000061,501.000000 
	C1.000041,334.333405 1.000041,167.666794 1.000020,1.000151 
	C167.666565,1.000100 334.333130,1.000100 500.999756,1.000050 
	C500.999847,167.666519 500.999847,334.333038 500.999939,500.999786 
	C448.833344,501.000000 396.666656,501.000000 344.000000,501.000000 
M84.991516,343.333862 
	C90.137672,355.851532 98.929642,364.092133 112.380325,367.147400 
	C113.778389,367.464935 115.774239,369.375916 115.847557,370.642761 
	C116.534081,382.505280 121.704201,391.824158 131.002701,399.019043 
	C140.431305,406.314667 151.055832,408.428772 162.831207,406.298462 
	C165.564224,415.455994 171.103958,422.455078 179.513657,426.958374 
	C191.907562,433.595154 204.547882,434.228241 217.445816,428.202057 
	C218.618729,427.654053 221.098801,427.833374 221.797684,428.663483 
	C228.366211,436.465057 237.068222,440.008667 246.788376,440.905121 
	C259.368500,442.065308 270.336945,438.315857 279.021210,428.656891 
	C279.798706,427.792114 282.296417,427.548615 283.472748,428.110443 
	C295.792725,433.994812 307.836731,433.529968 320.041779,427.607269 
	C329.407257,423.062469 334.765350,415.322296 338.361176,406.091187 
	C344.300293,407.854919 351.475647,407.289642 360.597290,404.057739 
	C375.215820,398.878174 384.274994,385.406189 384.908600,371.759521 
	C385.050507,368.702728 385.919922,367.392944 388.955017,366.962555 
	C396.883698,365.838104 403.460175,361.554169 408.452118,355.813385 
	C418.479340,344.281921 421.195374,330.976807 414.894348,316.138855 
	C426.410461,310.944427 432.555359,301.946533 435.131073,289.813049 
	C437.783630,277.317535 433.360382,267.239807 426.000122,257.945801 
	C433.698273,248.396683 437.881866,238.158188 435.074127,225.744949 
	C432.371674,213.797195 425.979584,204.851608 415.156616,199.465729 
	C419.851379,187.752899 419.292847,176.734802 412.676544,166.133041 
	C406.249817,155.835037 397.035065,149.651764 385.160400,147.662933 
	C385.064819,133.271011 378.850769,122.339905 367.228912,114.963158 
	C360.375977,110.613380 352.929871,106.828369 344.019928,108.851318 
	C341.924866,109.326988 338.513672,108.777031 337.291626,107.346283 
	C334.642609,104.244812 333.487549,99.880341 330.881317,96.726791 
	C324.162750,88.597282 314.904266,83.623512 304.747986,83.413445 
	C296.635132,83.245651 287.478485,82.438385 280.744751,89.071541 
	C263.545532,70.232338 238.272369,68.087952 219.575775,88.636452 
	C210.809219,84.427139 201.992004,81.713036 191.962219,83.880066 
	C178.844223,86.714325 168.964035,93.073654 163.878586,105.937759 
	C163.393875,107.163902 161.968353,108.680573 160.806076,108.846420 
	C157.870026,109.265358 154.830521,109.098732 151.840393,108.975143 
	C139.144165,108.450394 130.276169,114.996330 122.919586,124.440659 
	C117.584343,131.290009 115.687782,139.208679 115.842560,147.451279 
	C104.340202,149.513443 95.240692,154.376236 88.817139,164.248581 
	C84.281380,171.219589 81.839523,178.817368 82.574249,186.664551 
	C83.243546,193.812851 87.149658,200.987549 77.045731,204.445312 
	C76.764740,204.541458 76.576881,204.906967 76.343201,205.144531 
	C62.464466,219.253418 60.362057,241.400497 74.782188,257.534058 
	C67.144020,266.040680 63.501118,276.124329 65.164146,287.319397 
	C67.082687,300.234467 73.604958,310.570709 85.663506,316.468475 
	C81.374725,325.244843 81.545532,333.837616 84.991516,343.333862 
z"/>
<path fill="#FFCB27" opacity="1.000000" stroke="none" 
	d="
M84.951401,342.926514 
	C81.545532,333.837616 81.374725,325.244843 85.663506,316.468475 
	C73.604958,310.570709 67.082687,300.234467 65.164146,287.319397 
	C63.501118,276.124329 67.144020,266.040680 74.782188,257.534058 
	C60.362057,241.400497 62.464466,219.253418 76.343201,205.144531 
	C76.576881,204.906967 76.764740,204.541458 77.045731,204.445312 
	C87.149658,200.987549 83.243546,193.812851 82.574249,186.664551 
	C81.839523,178.817368 84.281380,171.219589 88.817139,164.248581 
	C95.240692,154.376236 104.340202,149.513443 115.842560,147.451279 
	C115.687782,139.208679 117.584343,131.290009 122.919586,124.440659 
	C130.276169,114.996330 139.144165,108.450394 151.840393,108.975143 
	C154.830521,109.098732 157.870026,109.265358 160.806076,108.846420 
	C161.968353,108.680573 163.393875,107.163902 163.878586,105.937759 
	C168.964035,93.073654 178.844223,86.714325 191.962219,83.880066 
	C201.992004,81.713036 210.809219,84.427139 219.575775,88.636452 
	C238.272369,68.087952 263.545532,70.232338 280.744751,89.071541 
	C287.478485,82.438385 296.635132,83.245651 304.747986,83.413445 
	C314.904266,83.623512 324.162750,88.597282 330.881317,96.726791 
	C333.487549,99.880341 334.642609,104.244812 337.291626,107.346283 
	C338.513672,108.777031 341.924866,109.326988 344.019928,108.851318 
	C352.929871,106.828369 360.375977,110.613380 367.228912,114.963158 
	C378.850769,122.339905 385.064819,133.271011 385.160400,147.662933 
	C397.035065,149.651764 406.249817,155.835037 412.676544,166.133041 
	C419.292847,176.734802 419.851379,187.752899 415.156616,199.465729 
	C425.979584,204.851608 432.371674,213.797195 435.074127,225.744949 
	C437.881866,238.158188 433.698273,248.396683 426.000122,257.945801 
	C433.360382,267.239807 437.783630,277.317535 435.131073,289.813049 
	C432.555359,301.946533 426.410461,310.944427 414.894348,316.138855 
	C421.195374,330.976807 418.479340,344.281921 408.452118,355.813385 
	C403.460175,361.554169 396.883698,365.838104 388.955017,366.962555 
	C385.919922,367.392944 385.050507,368.702728 384.908600,371.759521 
	C384.274994,385.406189 375.215820,398.878174 360.597290,404.057739 
	C351.475647,407.289642 344.300293,407.854919 338.361176,406.091187 
	C334.765350,415.322296 329.407257,423.062469 320.041779,427.607269 
	C307.836731,433.529968 295.792725,433.994812 283.472748,428.110443 
	C282.296417,427.548615 279.798706,427.792114 279.021210,428.656891 
	C270.336945,438.315857 259.368500,442.065308 246.788376,440.905121 
	C237.068222,440.008667 228.366211,436.465057 221.797684,428.663483 
	C221.098801,427.833374 218.618729,427.654053 217.445816,428.202057 
	C204.547882,434.228241 191.907562,433.595154 179.513657,426.958374 
	C171.103958,422.455078 165.564224,415.455994 162.831207,406.298462 
	C151.055832,408.428772 140.431305,406.314667 131.002701,399.019043 
	C121.704201,391.824158 116.534081,382.505280 115.847557,370.642761 
	C115.774239,369.375916 113.778389,367.464935 112.380325,367.147400 
	C98.929642,364.092133 90.137672,355.851532 84.951401,342.926514 
M246.984528,221.414246 
	C272.218109,205.095963 305.467438,213.121048 320.699646,239.206192 
	C334.763336,263.290131 330.047852,297.609650 309.748901,318.906097 
	C287.900879,341.827728 245.380234,347.370392 217.071030,330.986877 
	C181.842102,310.598755 165.064590,268.405212 176.647842,229.327286 
	C188.526047,189.254410 228.064041,160.198685 267.714508,162.404160 
	C275.149628,162.817719 280.497925,158.595093 281.001923,151.913422 
	C281.504730,145.247314 276.941956,140.342255 269.376068,139.725327 
	C249.694183,138.120453 231.391953,142.852219 214.028442,151.905731 
	C170.438446,174.633957 145.879745,219.578171 150.843185,267.286346 
	C155.710632,314.071686 198.280975,372.772583 271.358459,361.869781 
	C305.968048,356.706207 331.284271,338.621948 344.482574,305.634552 
	C356.583344,275.390320 355.033020,246.065231 334.872650,219.496048 
	C308.212494,184.360931 256.037659,179.950317 225.326294,209.680313 
	C203.815796,230.503448 199.719284,264.048920 215.906586,286.816345 
	C231.523773,308.781921 264.886414,312.412079 282.500641,293.954102 
	C289.544556,286.572784 292.950623,277.710297 291.313538,267.461029 
	C290.372711,261.570953 285.092438,257.775818 279.465942,258.204315 
	C273.775909,258.637665 269.445618,263.105804 268.947021,269.058075 
	C268.180023,278.214752 263.426514,282.703125 254.217468,282.966064 
	C242.671280,283.295776 233.201187,276.023254 230.059219,264.413849 
	C225.894928,249.027100 232.259445,232.453674 246.984528,221.414246 
z"/>
<path fill="#E6279B" opacity="1.000000" stroke="none" 
	d="
M246.695435,221.629807 
	C232.259445,232.453674 225.894928,249.027100 230.059219,264.413849 
	C233.201187,276.023254 242.671280,283.295776 254.217468,282.966064 
	C263.426514,282.703125 268.180023,278.214752 268.947021,269.058075 
	C269.445618,263.105804 273.775909,258.637665 279.465942,258.204315 
	C285.092438,257.775818 290.372711,261.570953 291.313538,267.461029 
	C292.950623,277.710297 289.544556,286.572784 282.500641,293.954102 
	C264.886414,312.412079 231.523773,308.781921 215.906586,286.816345 
	C199.719284,264.048920 203.815796,230.503448 225.326294,209.680313 
	C256.037659,179.950317 308.212494,184.360931 334.872650,219.496048 
	C355.033020,246.065231 356.583344,275.390320 344.482574,305.634552 
	C331.284271,338.621948 305.968048,356.706207 271.358459,361.869781 
	C198.280975,372.772583 155.710632,314.071686 150.843185,267.286346 
	C145.879745,219.578171 170.438446,174.633957 214.028442,151.905731 
	C231.391953,142.852219 249.694183,138.120453 269.376068,139.725327 
	C276.941956,140.342255 281.504730,145.247314 281.001923,151.913422 
	C280.497925,158.595093 275.149628,162.817719 267.714508,162.404160 
	C228.064041,160.198685 188.526047,189.254410 176.647842,229.327286 
	C165.064590,268.405212 181.842102,310.598755 217.071030,330.986877 
	C245.380234,347.370392 287.900879,341.827728 309.748901,318.906097 
	C330.047852,297.609650 334.763336,263.290131 320.699646,239.206192 
	C305.467438,213.121048 272.218109,205.095963 246.695435,221.629807 
z"/>
</svg>